<svg width="41" height="27" viewBox="0 0 41 27" fill="none" xmlns="http://www.w3.org/2000/svg">
<rect x="0.75" width="40" height="27" rx="8" fill="#0ECC5A"/>
<path d="M9.80682 18V9.27273H10.8636V17.0625H14.9205V18H9.80682ZM19.0795 18.1364C18.4886 18.1364 17.9702 17.9957 17.5241 17.7145C17.081 17.4332 16.7344 17.0398 16.4844 16.5341C16.2372 16.0284 16.1136 15.4375 16.1136 14.7614C16.1136 14.0795 16.2372 13.4844 16.4844 12.9759C16.7344 12.4673 17.081 12.0724 17.5241 11.7912C17.9702 11.5099 18.4886 11.3693 19.0795 11.3693C19.6705 11.3693 20.1875 11.5099 20.6307 11.7912C21.0767 12.0724 21.4233 12.4673 21.6705 12.9759C21.9205 13.4844 22.0455 14.0795 22.0455 14.7614C22.0455 15.4375 21.9205 16.0284 21.6705 16.5341C21.4233 17.0398 21.0767 17.4332 20.6307 17.7145C20.1875 17.9957 19.6705 18.1364 19.0795 18.1364ZM19.0795 17.233C19.5284 17.233 19.8977 17.1179 20.1875 16.8878C20.4773 16.6577 20.6918 16.3551 20.831 15.9801C20.9702 15.6051 21.0398 15.1989 21.0398 14.7614C21.0398 14.3239 20.9702 13.9162 20.831 13.5384C20.6918 13.1605 20.4773 12.8551 20.1875 12.6222C19.8977 12.3892 19.5284 12.2727 19.0795 12.2727C18.6307 12.2727 18.2614 12.3892 17.9716 12.6222C17.6818 12.8551 17.4673 13.1605 17.3281 13.5384C17.1889 13.9162 17.1193 14.3239 17.1193 14.7614C17.1193 15.1989 17.1889 15.6051 17.3281 15.9801C17.4673 16.3551 17.6818 16.6577 17.9716 16.8878C18.2614 17.1179 18.6307 17.233 19.0795 17.233ZM24.8409 18L22.8466 11.4545H23.9034L25.3182 16.4659H25.3864L26.7841 11.4545H27.858L29.2386 16.4489H29.3068L30.7216 11.4545H31.7784L29.7841 18H28.7955L27.3636 12.9716H27.2614L25.8295 18H24.8409Z" fill="white"/>
</svg>
