<svg width="55" height="27" viewBox="0 0 55 27" fill="none" xmlns="http://www.w3.org/2000/svg">
<rect width="55" height="27" rx="8" fill="#FF6B6B"/>
<path d="M14.7841 9.27273H15.8409V15.0511C15.8409 15.6477 15.7003 16.1804 15.419 16.6491C15.1406 17.1151 14.7472 17.483 14.2386 17.7528C13.7301 18.0199 13.1335 18.1534 12.4489 18.1534C11.7642 18.1534 11.1676 18.0199 10.6591 17.7528C10.1506 17.483 9.75568 17.1151 9.47443 16.6491C9.19602 16.1804 9.05682 15.6477 9.05682 15.0511V9.27273H10.1136V14.9659C10.1136 15.392 10.2074 15.7713 10.3949 16.1037C10.5824 16.4332 10.8494 16.6932 11.196 16.8835C11.5455 17.071 11.9631 17.1648 12.4489 17.1648C12.9347 17.1648 13.3523 17.071 13.7017 16.8835C14.0511 16.6932 14.3182 16.4332 14.5028 16.1037C14.6903 15.7713 14.7841 15.392 14.7841 14.9659V9.27273ZM17.815 18V11.4545H18.7866V12.4432H18.8548C18.9741 12.1193 19.19 11.8565 19.5025 11.6548C19.815 11.4531 20.1673 11.3523 20.5593 11.3523C20.6332 11.3523 20.7255 11.3537 20.8363 11.3565C20.9471 11.3594 21.0309 11.3636 21.0877 11.3693V12.392C21.0536 12.3835 20.9755 12.3707 20.8533 12.3537C20.734 12.3338 20.6076 12.3239 20.4741 12.3239C20.1559 12.3239 19.8718 12.3906 19.6218 12.5241C19.3746 12.6548 19.1786 12.8366 19.0337 13.0696C18.8917 13.2997 18.8207 13.5625 18.8207 13.858V18H17.815ZM24.7227 20.5909C24.2369 20.5909 23.8192 20.5284 23.4698 20.4034C23.1204 20.2812 22.8292 20.1193 22.5962 19.9176C22.3661 19.7188 22.1829 19.5057 22.0465 19.2784L22.8477 18.7159C22.9386 18.8352 23.0536 18.9716 23.1928 19.125C23.332 19.2812 23.5224 19.4162 23.7638 19.5298C24.0082 19.6463 24.3278 19.7045 24.7227 19.7045C25.2511 19.7045 25.6871 19.5767 26.0309 19.321C26.3746 19.0653 26.5465 18.6648 26.5465 18.1193V16.7898H26.4613C26.3874 16.9091 26.2823 17.0568 26.146 17.233C26.0124 17.4062 25.8192 17.5611 25.5664 17.6974C25.3164 17.831 24.9783 17.8977 24.5522 17.8977C24.0238 17.8977 23.5494 17.7727 23.1289 17.5227C22.7113 17.2727 22.3803 16.9091 22.136 16.4318C21.8945 15.9545 21.7738 15.375 21.7738 14.6932C21.7738 14.0227 21.8917 13.4389 22.1275 12.9418C22.3633 12.4418 22.6914 12.0554 23.1119 11.7827C23.5323 11.5071 24.0181 11.3693 24.5692 11.3693C24.9954 11.3693 25.3335 11.4403 25.5835 11.5824C25.8363 11.7216 26.0295 11.8807 26.163 12.0597C26.2994 12.2358 26.4045 12.3807 26.4783 12.4943H26.5806V11.4545H27.5522V18.1875C27.5522 18.75 27.4244 19.2074 27.1687 19.5597C26.9158 19.9148 26.5749 20.1747 26.146 20.3395C25.7198 20.5071 25.2454 20.5909 24.7227 20.5909ZM24.6886 16.9943C25.092 16.9943 25.4329 16.902 25.7113 16.7173C25.9897 16.5327 26.2013 16.267 26.3462 15.9205C26.4911 15.5739 26.5636 15.1591 26.5636 14.6761C26.5636 14.2045 26.4925 13.7884 26.3505 13.4276C26.2085 13.0668 25.9982 12.7841 25.7198 12.5795C25.4414 12.375 25.0977 12.2727 24.6886 12.2727C24.2624 12.2727 23.9073 12.3807 23.6232 12.5966C23.342 12.8125 23.1303 13.1023 22.9883 13.4659C22.8491 13.8295 22.7795 14.233 22.7795 14.6761C22.7795 15.1307 22.8505 15.5327 22.9925 15.8821C23.1374 16.2287 23.3505 16.5014 23.6317 16.7003C23.9158 16.8963 24.2681 16.9943 24.6886 16.9943ZM32.1374 18.1364C31.5067 18.1364 30.9627 17.9972 30.5053 17.7188C30.0508 17.4375 29.6999 17.0455 29.4528 16.5426C29.2085 16.0369 29.0863 15.4489 29.0863 14.7784C29.0863 14.108 29.2085 13.517 29.4528 13.0057C29.6999 12.4915 30.0437 12.0909 30.484 11.804C30.9272 11.5142 31.4442 11.3693 32.0352 11.3693C32.3761 11.3693 32.7127 11.4261 33.0451 11.5398C33.3775 11.6534 33.68 11.8381 33.9528 12.0938C34.2255 12.3466 34.4428 12.6818 34.6048 13.0994C34.7667 13.517 34.8477 14.0312 34.8477 14.642V15.0682H29.8022V14.1989H33.8249C33.8249 13.8295 33.7511 13.5 33.6033 13.2102C33.4585 12.9205 33.2511 12.6918 32.9812 12.5241C32.7141 12.3565 32.3988 12.2727 32.0352 12.2727C31.6346 12.2727 31.288 12.3722 30.9954 12.571C30.7056 12.767 30.4826 13.0227 30.3263 13.3381C30.1701 13.6534 30.092 13.9915 30.092 14.3523V14.9318C30.092 15.4261 30.1772 15.8452 30.3477 16.1889C30.521 16.5298 30.761 16.7898 31.0678 16.9688C31.3746 17.1449 31.7312 17.233 32.1374 17.233C32.4016 17.233 32.6403 17.196 32.8533 17.1222C33.0692 17.0455 33.2553 16.9318 33.4116 16.7812C33.5678 16.6278 33.6886 16.4375 33.7738 16.2102L34.7454 16.483C34.6431 16.8125 34.4712 17.1023 34.2298 17.3523C33.9883 17.5994 33.69 17.7926 33.3349 17.9318C32.9798 18.0682 32.5806 18.1364 32.1374 18.1364ZM37.3832 14.0625V18H36.3775V11.4545H37.3491V12.4773H37.4343C37.5877 12.1449 37.8207 11.8778 38.1332 11.6761C38.4457 11.4716 38.8491 11.3693 39.3434 11.3693C39.7866 11.3693 40.1744 11.4602 40.5067 11.642C40.8391 11.821 41.0977 12.0938 41.2823 12.4602C41.467 12.8239 41.5593 13.2841 41.5593 13.8409V18H40.5536V13.9091C40.5536 13.3949 40.4201 12.9943 40.1531 12.7074C39.886 12.4176 39.5195 12.2727 39.0536 12.2727C38.7326 12.2727 38.4457 12.3423 38.1928 12.4815C37.9428 12.6207 37.7454 12.8239 37.6005 13.0909C37.4556 13.358 37.3832 13.6818 37.3832 14.0625ZM46.2436 11.4545V12.3068H42.8516V11.4545H46.2436ZM43.8402 9.88636H44.8459V16.125C44.8459 16.4091 44.8871 16.6222 44.9695 16.7642C45.0547 16.9034 45.1626 16.9972 45.2933 17.0455C45.4268 17.0909 45.5675 17.1136 45.7152 17.1136C45.826 17.1136 45.9169 17.108 45.9879 17.0966C46.0589 17.0824 46.1158 17.071 46.1584 17.0625L46.3629 17.9659C46.2947 17.9915 46.1996 18.017 46.0774 18.0426C45.9553 18.071 45.8004 18.0852 45.6129 18.0852C45.3288 18.0852 45.0504 18.0241 44.7777 17.902C44.5078 17.7798 44.2834 17.5938 44.1044 17.3438C43.9283 17.0938 43.8402 16.7784 43.8402 16.3977V9.88636Z" fill="white"/>
</svg>
