<svg width="63" height="27" viewBox="0 0 63 27" fill="none" xmlns="http://www.w3.org/2000/svg">
<rect x="0.75" width="62" height="27" rx="8" fill="#FFA235"/>
<path d="M9.80682 9.27273H11.0682L14.0341 16.517H14.1364L17.1023 9.27273H18.3636V18H17.375V11.3693H17.2898L14.5625 18H13.608L10.8807 11.3693H10.7955V18H9.80682V9.27273ZM23.0906 18.1364C22.4599 18.1364 21.9158 17.9972 21.4585 17.7188C21.0039 17.4375 20.6531 17.0455 20.4059 16.5426C20.1616 16.0369 20.0394 15.4489 20.0394 14.7784C20.0394 14.108 20.1616 13.517 20.4059 13.0057C20.6531 12.4915 20.9968 12.0909 21.4371 11.804C21.8803 11.5142 22.3974 11.3693 22.9883 11.3693C23.3292 11.3693 23.6658 11.4261 23.9982 11.5398C24.3306 11.6534 24.6332 11.8381 24.9059 12.0938C25.1786 12.3466 25.396 12.6818 25.5579 13.0994C25.7198 13.517 25.8008 14.0312 25.8008 14.642V15.0682H20.7553V14.1989H24.7781C24.7781 13.8295 24.7042 13.5 24.5565 13.2102C24.4116 12.9205 24.2042 12.6918 23.9343 12.5241C23.6673 12.3565 23.3519 12.2727 22.9883 12.2727C22.5877 12.2727 22.2411 12.3722 21.9485 12.571C21.6587 12.767 21.4357 13.0227 21.2795 13.3381C21.1232 13.6534 21.0451 13.9915 21.0451 14.3523V14.9318C21.0451 15.4261 21.1303 15.8452 21.3008 16.1889C21.4741 16.5298 21.7141 16.7898 22.021 16.9688C22.3278 17.1449 22.6843 17.233 23.0906 17.233C23.3548 17.233 23.5934 17.196 23.8065 17.1222C24.0224 17.0455 24.2085 16.9318 24.3647 16.7812C24.521 16.6278 24.6417 16.4375 24.7269 16.2102L25.6985 16.483C25.5962 16.8125 25.4244 17.1023 25.1829 17.3523C24.9414 17.5994 24.6431 17.7926 24.288 17.9318C23.9329 18.0682 23.5337 18.1364 23.0906 18.1364ZM29.8022 18.1364C29.2567 18.1364 28.7752 17.9986 28.3576 17.723C27.94 17.4446 27.6133 17.0526 27.3775 16.5469C27.1417 16.0384 27.0238 15.4375 27.0238 14.7443C27.0238 14.0568 27.1417 13.4602 27.3775 12.9545C27.6133 12.4489 27.9414 12.0582 28.3619 11.7827C28.7823 11.5071 29.2681 11.3693 29.8192 11.3693C30.2454 11.3693 30.582 11.4403 30.8292 11.5824C31.0792 11.7216 31.2695 11.8807 31.4002 12.0597C31.5337 12.2358 31.6374 12.3807 31.7113 12.4943H31.7965V9.27273H32.8022V18H31.8306V16.9943H31.7113C31.6374 17.1136 31.5323 17.2642 31.396 17.446C31.2596 17.625 31.065 17.7855 30.8121 17.9276C30.5593 18.0668 30.2227 18.1364 29.8022 18.1364ZM29.9386 17.233C30.342 17.233 30.6829 17.1278 30.9613 16.9176C31.2397 16.7045 31.4513 16.4105 31.5962 16.0355C31.7411 15.6577 31.8136 15.2216 31.8136 14.7273C31.8136 14.2386 31.7425 13.8111 31.6005 13.4446C31.4585 13.0753 31.2482 12.7884 30.9698 12.5838C30.6914 12.3764 30.3477 12.2727 29.9386 12.2727C29.5124 12.2727 29.1573 12.3821 28.8732 12.6009C28.592 12.8168 28.3803 13.1108 28.2383 13.483C28.0991 13.8523 28.0295 14.267 28.0295 14.7273C28.0295 15.1932 28.1005 15.6165 28.2425 15.9972C28.3874 16.375 28.6005 16.6761 28.8817 16.9006C29.1658 17.1222 29.5181 17.233 29.9386 17.233ZM34.7837 18V11.4545H35.7894V18H34.7837ZM35.2951 10.3636C35.0991 10.3636 34.93 10.2969 34.788 10.1634C34.6488 10.0298 34.5792 9.86932 34.5792 9.68182C34.5792 9.49432 34.6488 9.33381 34.788 9.20028C34.93 9.06676 35.0991 9 35.2951 9C35.4911 9 35.6587 9.06676 35.7979 9.20028C35.94 9.33381 36.011 9.49432 36.011 9.68182C36.011 9.86932 35.94 10.0298 35.7979 10.1634C35.6587 10.2969 35.4911 10.3636 35.2951 10.3636ZM41.7564 15.3239V11.4545H42.7621V18H41.7564V16.892H41.6882C41.5348 17.2244 41.2962 17.5071 40.9723 17.7401C40.6484 17.9702 40.2393 18.0852 39.745 18.0852C39.3359 18.0852 38.9723 17.9957 38.6541 17.8168C38.3359 17.6349 38.0859 17.3622 37.9041 16.9986C37.7223 16.6321 37.6314 16.1705 37.6314 15.6136V11.4545H38.6371V15.5455C38.6371 16.0227 38.7706 16.4034 39.0376 16.6875C39.3075 16.9716 39.6513 17.1136 40.0689 17.1136C40.3189 17.1136 40.5732 17.0497 40.8317 16.9219C41.093 16.794 41.3118 16.598 41.4879 16.3338C41.6669 16.0696 41.7564 15.733 41.7564 15.3239ZM44.604 18V11.4545H45.5756V12.4773H45.6609C45.7972 12.1278 46.0174 11.8565 46.3214 11.6634C46.6254 11.4673 46.9904 11.3693 47.4165 11.3693C47.8484 11.3693 48.2077 11.4673 48.4947 11.6634C48.7844 11.8565 49.0103 12.1278 49.1722 12.4773H49.2404C49.408 12.1392 49.6594 11.8707 49.9947 11.6719C50.3299 11.4702 50.7319 11.3693 51.2006 11.3693C51.7859 11.3693 52.2646 11.5526 52.6367 11.919C53.0089 12.2827 53.195 12.8494 53.195 13.6193V18H52.1893V13.6193C52.1893 13.1364 52.0572 12.7912 51.793 12.5838C51.5288 12.3764 51.2177 12.2727 50.8597 12.2727C50.3995 12.2727 50.043 12.4119 49.7901 12.6903C49.5373 12.9659 49.4109 13.3153 49.4109 13.7386V18H48.3881V13.517C48.3881 13.1449 48.2674 12.8452 48.0259 12.6179C47.7844 12.3878 47.4734 12.2727 47.0927 12.2727C46.8313 12.2727 46.587 12.3423 46.3597 12.4815C46.1353 12.6207 45.9535 12.8139 45.8143 13.0611C45.6779 13.3054 45.6097 13.5881 45.6097 13.9091V18H44.604Z" fill="white"/>
</svg>
